# xmcd
#
# Track frame offsets:
#  150
#  13730
#  27465
#  42720
#  54302
#  68379
#  81540
#  94667
#  109059
#  121542
#  135751
#  148969
#  164263
#  179092
#  192297
#  203076
#
# Disc length: 2895 seconds
#
# Revision: 0
# Processed by: cddbd v1.4PL0 Copyright (c) Steve Scherf et al.
# Submitted via: AltoMP3_Maker 3.0
#
DISCID=dd0b4d10
DTITLE=Nat King Cole - The Legendary Nat King Cole
DYEAR=1900
DGENRE=
TTITLE0=Get your Kicks On Route 66
TTITLE1=For Sentimenal Reasons
TTITLE2=Embraceable You
TTITLE3=Straighten Up And Fly Right
TTITLE4=I Just Can't See For Lookin'
TTITLE5=It's Only A Paper Moon
TTITLE6=I'm A Shy Guy
TTITLE7=I'm In The Mood Of Love
TTITLE8=I Don't Know Why - I Just Do
TTITLE9=I Realize Now
TTITLE10=Gee Baby, Ain't I Good To You
TTITLE11=All For You
TTITLE12=The Frim Fram Sauce
TTITLE13=I'm Thru With Love
TTITLE14=When I Take My Sugar To Tea
TTITLE15=Sweet Lorraine
EXTD=
EXTT0=
EXTT1=
EXTT2=
EXTT3=
EXTT4=
EXTT5=
EXTT6=
EXTT7=
EXTT8=
EXTT9=
EXTT10=
EXTT11=
EXTT12=
EXTT13=
EXTT14=
EXTT15=
PLAYORDER=
